<svg width="56" height="42" viewBox="0 0 56 42" fill="none" xmlns="http://www.w3.org/2000/svg">
<rect width="56" height="42" rx="8" fill="#F6F6F6"/>
<path d="M17.422 14.3718C17.4751 15.5731 18.5131 20.1576 18.5131 20.1576C18.8946 21.0861 19.2229 20.1576 19.2229 20.1576C20.4788 16.3913 17.9124 14.2087 17.9124 14.2087C17.2573 13.8258 17.422 14.3718 17.422 14.3718ZM32.3229 13.7172C32.3229 13.7172 33.5793 14.5905 32.3229 14.7541C32.3229 14.7541 27.6284 15.2997 24.1353 18.5757C24.1353 18.5757 18.8946 23.1592 16.93 28.1813C16.93 28.1813 16.2749 28.1813 16.4941 27.1992C16.7122 26.2168 18.0216 21.9043 23.8616 16.6106C23.8616 16.6106 29.4854 11.4793 32.3229 13.7172Z" fill="#FF4600"/>
<path d="M8.43933 20.9839C8.64671 21.0275 8.83291 21.049 9.10638 21.049C10.1771 21.049 10.8986 20.3602 10.8986 19.4856C10.8986 18.6987 10.3413 18.4149 9.62047 18.4149C9.30276 18.4149 9.06229 18.4369 8.90942 18.48L8.43933 20.9839ZM7.83813 17.5729C8.28638 17.4632 8.95343 17.3981 9.60915 17.3981C10.2982 17.3981 11.0196 17.5396 11.5004 17.9228C11.9267 18.2507 12.1781 18.7308 12.1781 19.3877C12.1781 20.2618 11.7625 20.9731 11.2377 21.3881C10.6478 21.8582 9.80519 22.0878 8.93077 22.0878C8.66814 22.0878 8.43933 22.0546 8.24238 22.0332L7.70661 24.821H6.46094L7.83813 17.5729ZM15.5552 20.4147C15.4243 20.3813 15.2607 20.3602 15.031 20.3602C13.8612 20.3602 12.9428 21.6835 12.9428 22.8971C12.9428 23.4537 13.1505 23.9134 13.7083 23.9134C14.309 23.9134 15.031 23.1705 15.2824 21.8144L15.5552 20.4147ZM15.0417 24.821C15.0417 24.5033 15.0852 24.0776 15.1295 23.6286H15.1075C14.5829 24.6023 13.8719 24.9409 13.1942 24.9409C12.2434 24.9409 11.6196 24.1974 11.6196 23.1265C11.6196 21.3117 12.8878 19.3764 15.3695 19.3764C15.9488 19.3764 16.5721 19.4856 16.9877 19.6168L16.4302 22.3936C16.2767 23.1806 16.1895 24.1867 16.2115 24.821H15.0417ZM24.2228 22.7109C24.2228 23.4425 24.6054 23.9578 25.2614 23.9578C26.2125 23.9578 26.8467 22.6452 26.8467 21.5848C26.8467 21.0377 26.5948 20.36 25.8302 20.36C24.8133 20.36 24.2228 21.7161 24.2228 22.7109ZM28.1585 21.5744C28.1585 23.3886 26.9009 24.9407 25.0867 24.9407C23.7414 24.9407 22.9114 24.0116 22.9114 22.7431C22.9114 20.9399 24.1683 19.3765 25.9831 19.3765C27.415 19.3765 28.1585 20.4041 28.1585 21.5744ZM28.3979 24.821L29.0869 21.1474C29.2178 20.5132 29.2943 19.9557 29.36 19.4969H30.4977L30.3772 20.448H30.3986C30.8901 19.737 31.5684 19.3764 32.3119 19.3764C33.0767 19.3764 33.6674 19.8361 33.6674 20.8416C33.6674 21.0817 33.6244 21.4532 33.5694 21.7159L32.989 24.821H31.7101L32.2781 21.8144C32.312 21.6178 32.3444 21.3881 32.3444 21.1802C32.3444 20.7319 32.1805 20.4147 31.6777 20.4147C31.0984 20.4147 30.3547 21.1142 30.1252 22.3612L29.6663 24.821H28.3979ZM37.055 20.3275C36.2566 20.3275 35.7324 21.038 35.5794 21.6835C36.8908 21.6942 37.7333 21.5193 37.7333 20.8746C37.7333 20.5357 37.4599 20.3275 37.055 20.3275ZM38.2685 24.5146C37.7435 24.7877 37.0336 24.9409 36.3881 24.9409C34.9136 24.9409 34.2026 24.034 34.2026 22.7328C34.2026 21.1256 35.3825 19.3766 37.2192 19.3766C38.2685 19.3766 38.9356 19.9776 38.9356 20.8746C38.9356 22.2407 37.504 22.6778 35.4488 22.6344C35.4265 22.8199 35.4702 23.1806 35.5907 23.3885C35.7986 23.7497 36.1801 23.9353 36.6837 23.9353C37.2856 23.9353 37.7658 23.7821 38.1495 23.5855L38.2685 24.5146ZM42.0063 20.3275C41.2087 20.3275 40.6837 21.038 40.5307 21.6835C41.8421 21.6942 42.6847 21.5193 42.6847 20.8746C42.6847 20.5357 42.4113 20.3275 42.0063 20.3275ZM43.2199 24.5146C42.6957 24.7877 41.9849 24.9409 41.3405 24.9409C39.8648 24.9409 39.1538 24.034 39.1538 22.7328C39.1538 21.1256 40.3338 19.3766 42.1706 19.3766C43.2198 19.3766 43.8881 19.9776 43.8881 20.8746C43.8881 22.2407 42.4553 22.6778 40.4 22.6344C40.3775 22.8199 40.4215 23.1806 40.542 23.3885C40.7499 23.7497 41.1323 23.9353 41.635 23.9353C42.2368 23.9353 42.7171 23.7821 43.1008 23.5855L43.2199 24.5146ZM43.9634 24.821L44.5864 21.5411C44.7283 20.7868 44.8048 19.9669 44.8586 19.4968H45.9632C45.9306 19.8575 45.8981 20.2291 45.843 20.6122H45.8755C46.2379 19.9012 46.8159 19.3764 47.538 19.3764C47.637 19.3764 47.7349 19.3877 47.8227 19.3877L47.5706 20.634C47.5052 20.6226 47.4178 20.6226 47.33 20.6226C46.422 20.6226 45.843 21.5411 45.636 22.6778L45.2311 24.821H43.9634ZM48.7898 19.9839H48.8831C48.9787 19.9839 49.0418 19.9305 49.0418 19.8501C49.0418 19.7595 48.9755 19.7197 48.8799 19.7197C48.8359 19.7197 48.8046 19.7229 48.7899 19.7264L48.7898 19.9839ZM48.6987 19.6627C48.7563 19.653 48.8146 19.6482 48.873 19.6482C48.9697 19.6482 49.034 19.6679 49.0765 19.7061C49.1116 19.7371 49.1319 19.7855 49.1319 19.8411C49.1319 19.9326 49.0743 19.9946 49.0001 20.0192V20.0227C49.054 20.0412 49.0855 20.0919 49.1036 20.1649C49.1261 20.2622 49.143 20.3309 49.1577 20.3584H49.0633C49.0519 20.3369 49.036 20.2776 49.0181 20.1898C48.9967 20.0924 48.9575 20.0566 48.8752 20.0531H48.7899V20.3584H48.6987V19.6627Z" fill="#0B0F0E"/>
<path d="M48.9092 19.3767C48.7422 19.3768 48.582 19.4432 48.4639 19.5613C48.3458 19.6794 48.2794 19.8396 48.2793 20.0066C48.2793 20.3542 48.5617 20.6368 48.9092 20.6368C49.2568 20.6368 49.5392 20.3542 49.5392 20.0066C49.5391 19.8396 49.4727 19.6794 49.3545 19.5613C49.2364 19.4432 49.0763 19.3768 48.9092 19.3767ZM48.9092 19.474C48.9792 19.474 49.0484 19.4878 49.113 19.5146C49.1776 19.5413 49.2362 19.5806 49.2856 19.63C49.3351 19.6795 49.3742 19.7382 49.4009 19.8029C49.4276 19.8675 49.4413 19.9367 49.4412 20.0066C49.4412 20.3012 49.2029 20.5398 48.9092 20.5398C48.8392 20.5398 48.7699 20.526 48.7052 20.4992C48.6405 20.4724 48.5817 20.4332 48.5322 20.3837C48.4827 20.3342 48.4434 20.2754 48.4166 20.2107C48.3898 20.146 48.376 20.0767 48.376 20.0066C48.376 19.9366 48.3897 19.8673 48.4165 19.8026C48.4433 19.738 48.4826 19.6792 48.5321 19.6297C48.5817 19.5803 48.6405 19.541 48.7052 19.5143C48.7699 19.4876 48.8392 19.4739 48.9092 19.474Z" fill="#0B0F0E"/>
</svg>
