<svg width="56" height="42" viewBox="0 0 56 42" fill="none" xmlns="http://www.w3.org/2000/svg">
<rect width="56" height="42" rx="8" fill="#F6F6F6"/>
<path d="M22.5702 17.6111H20.1864C20.1075 17.611 20.0311 17.639 19.9711 17.6899C19.9111 17.7409 19.8714 17.8114 19.8591 17.8889L18.895 23.9633C18.8905 23.9915 18.8923 24.0203 18.9001 24.0478C18.908 24.0752 18.9217 24.1007 18.9404 24.1223C18.9591 24.144 18.9823 24.1614 19.0084 24.1733C19.0345 24.1852 19.0628 24.1913 19.0915 24.1913H20.2296C20.3086 24.1913 20.3849 24.1633 20.445 24.1123C20.505 24.0613 20.5447 23.9907 20.5569 23.9131L20.8169 22.2747C20.8291 22.1973 20.8688 22.1267 20.9287 22.0757C20.9887 22.0247 21.065 21.9966 21.1439 21.9966H21.8985C23.4687 21.9966 24.375 21.2415 24.6117 19.7451C24.7183 19.0905 24.6162 18.5761 24.3077 18.2159C23.9689 17.8203 23.368 17.6111 22.5702 17.6111ZM22.8452 19.8296C22.7148 20.6797 22.0613 20.6797 21.4293 20.6797H21.0696L21.322 19.0922C21.3294 19.0458 21.3532 19.0035 21.3892 18.9729C21.4251 18.9424 21.4709 18.9256 21.5182 18.9256H21.6831C22.1135 18.9256 22.5196 18.9256 22.7295 19.1694C22.8546 19.3149 22.8929 19.5311 22.8452 19.8296ZM29.6957 19.8023H28.5542C28.5069 19.8023 28.4611 19.8191 28.4252 19.8496C28.3892 19.8802 28.3654 19.9225 28.358 19.9689L28.3074 20.2862L28.2276 20.1712C27.9805 19.8148 27.4294 19.6956 26.8794 19.6956C25.618 19.6956 24.5406 20.645 24.3307 21.9769C24.2216 22.6412 24.3767 23.2765 24.756 23.7195C25.1038 24.1268 25.6016 24.2966 26.1938 24.2966C27.2102 24.2966 27.7738 23.6471 27.7738 23.6471L27.7229 23.9623C27.7184 23.9905 27.72 24.0193 27.7278 24.0468C27.7355 24.0743 27.7492 24.0998 27.7678 24.1215C27.7864 24.1432 27.8096 24.1607 27.8356 24.1727C27.8617 24.1846 27.8901 24.1909 27.9188 24.1909H28.947C29.026 24.191 29.1024 24.1629 29.1624 24.1119C29.2224 24.0609 29.2621 23.9903 29.2743 23.9128L29.8913 20.0302C29.8958 20.0021 29.8942 19.9733 29.8864 19.9459C29.8787 19.9185 29.8651 19.8931 29.8465 19.8714C29.8279 19.8497 29.8048 19.8323 29.7787 19.8204C29.7527 19.8084 29.7244 19.8023 29.6957 19.8023ZM28.1046 22.0101C27.9944 22.6582 27.4768 23.0932 26.8167 23.0932C26.4852 23.0932 26.2203 22.9876 26.0502 22.7874C25.8815 22.5886 25.8173 22.3056 25.871 21.9904C25.9738 21.3478 26.5002 20.8986 27.1502 20.8986C27.4744 20.8986 27.7379 21.0056 27.9115 21.2075C28.0854 21.4116 28.1544 21.6963 28.1046 22.0101ZM35.7753 19.8023H34.6282C34.5741 19.8024 34.5208 19.8156 34.473 19.8407C34.4252 19.8659 34.3843 19.9023 34.3539 19.9467L32.7718 22.2626L32.1011 20.0371C32.0806 19.9693 32.0385 19.9098 31.9813 19.8675C31.924 19.8252 31.8546 19.8023 31.7833 19.8023H30.656C30.6244 19.8022 30.5932 19.8096 30.565 19.824C30.5368 19.8383 30.5125 19.8591 30.4941 19.8846C30.4756 19.9102 30.4636 19.9397 30.459 19.9708C30.4543 20.0019 30.4572 20.0337 30.4675 20.0635L31.731 23.7482L30.5431 25.4147C30.522 25.4442 30.5095 25.479 30.5069 25.5151C30.5043 25.5513 30.5118 25.5874 30.5286 25.6196C30.5453 25.6518 30.5706 25.6788 30.6018 25.6976C30.6329 25.7165 30.6687 25.7264 30.7052 25.7264H31.8509C31.9044 25.7265 31.9571 25.7137 32.0045 25.6891C32.0519 25.6644 32.0926 25.6288 32.1231 25.5851L35.9384 20.1123C35.9591 20.0827 35.9712 20.048 35.9735 20.012C35.9758 19.9761 35.9681 19.9402 35.9513 19.9082C35.9345 19.8763 35.9092 19.8495 35.8782 19.8309C35.8471 19.8122 35.8116 19.8023 35.7753 19.8023Z" fill="#253B80"/>
<path d="M39.5722 17.6112H37.188C37.1092 17.6112 37.0329 17.6392 36.973 17.6901C36.913 17.7411 36.8734 17.8116 36.8611 17.889L35.897 23.9634C35.8925 23.9916 35.8942 24.0204 35.902 24.0478C35.9098 24.0752 35.9234 24.1006 35.9421 24.1223C35.9607 24.1439 35.9838 24.1613 36.0098 24.1733C36.0359 24.1852 36.0642 24.1914 36.0929 24.1914H37.3163C37.3715 24.1913 37.4249 24.1716 37.4668 24.136C37.5087 24.1003 37.5364 24.0509 37.545 23.9967L37.8186 22.2748C37.8308 22.1974 37.8704 22.1268 37.9304 22.0758C37.9903 22.0248 38.0666 21.9967 38.1455 21.9967H38.8998C40.4704 21.9967 41.3763 21.2416 41.6133 19.7452C41.7203 19.0906 41.6175 18.5762 41.309 18.216C40.9706 17.8204 40.37 17.6112 39.5722 17.6112ZM39.8472 19.8298C39.7172 20.6798 39.0636 20.6798 38.4313 20.6798H38.072L38.3247 19.0923C38.3319 19.0459 38.3557 19.0035 38.3916 18.973C38.4275 18.9424 38.4733 18.9256 38.5206 18.9257H38.6854C39.1156 18.9257 39.522 18.9257 39.7318 19.1696C39.8569 19.315 39.8949 19.5312 39.8472 19.8298ZM46.6974 19.8024H45.5566C45.5093 19.8023 45.4635 19.819 45.4275 19.8496C45.3916 19.8801 45.3679 19.9225 45.3607 19.969L45.3101 20.2863L45.23 20.1713C44.9828 19.8149 44.4321 19.6957 43.8821 19.6957C42.6207 19.6957 41.5436 20.6451 41.3338 21.977C41.225 22.6413 41.3794 23.2766 41.7587 23.7196C42.1072 24.1269 42.6043 24.2967 43.1965 24.2967C44.2129 24.2967 44.7765 23.6472 44.7765 23.6472L44.7256 23.9624C44.7211 23.9906 44.7228 24.0195 44.7305 24.0471C44.7383 24.0746 44.7521 24.1001 44.7708 24.1219C44.7895 24.1436 44.8127 24.161 44.8388 24.173C44.865 24.1849 44.8934 24.1911 44.9222 24.191H45.9501C46.029 24.191 46.1053 24.1629 46.1652 24.1119C46.2252 24.0609 46.2648 23.9903 46.277 23.9129L46.8943 20.0303C46.8987 20.0021 46.8969 19.9733 46.889 19.9458C46.8811 19.9184 46.8673 19.893 46.8486 19.8713C46.8299 19.8497 46.8067 19.8323 46.7806 19.8204C46.7545 19.8085 46.7261 19.8024 46.6974 19.8024ZM45.1062 22.0102C44.9968 22.6583 44.4785 23.0933 43.8183 23.0933C43.4875 23.0933 43.2219 22.9877 43.0518 22.7875C42.8831 22.5887 42.8197 22.3057 42.8727 21.9905C42.9762 21.3479 43.5018 20.8987 44.1519 20.8987C44.476 20.8987 44.7396 21.0057 44.9131 21.2077C45.0878 21.4117 45.1568 21.6964 45.1062 22.0102ZM48.0432 17.7778L47.0648 23.9634C47.0603 23.9916 47.062 24.0204 47.0698 24.0478C47.0776 24.0752 47.0912 24.1006 47.1099 24.1223C47.1285 24.1439 47.1516 24.1613 47.1776 24.1733C47.2037 24.1852 47.232 24.1914 47.2607 24.1914H48.2443C48.4078 24.1914 48.5465 24.0736 48.5716 23.9132L49.5364 17.8391C49.5409 17.8109 49.5392 17.7822 49.5314 17.7547C49.5236 17.7273 49.51 17.7019 49.4913 17.6802C49.4727 17.6585 49.4496 17.641 49.4236 17.6291C49.3975 17.6171 49.3692 17.6109 49.3405 17.6108H48.2391C48.1918 17.611 48.1461 17.6279 48.1102 17.6585C48.0743 17.6891 48.0506 17.7314 48.0432 17.7778Z" fill="#179BD7"/>
<path d="M8.99484 25.3718L9.17713 24.2212L8.77106 24.2118H6.83203L8.17956 15.721C8.18357 15.6951 8.19683 15.6714 8.21692 15.6544C8.23701 15.6373 8.26259 15.628 8.28901 15.6282H11.5585C12.6439 15.6282 13.3929 15.8526 13.784 16.2956C13.9674 16.5035 14.0841 16.7207 14.1406 16.9597C14.1999 17.2104 14.2009 17.5101 14.143 17.8755L14.1389 17.9022V18.1363L14.3222 18.2395C14.4622 18.31 14.588 18.4053 14.6934 18.5208C14.8503 18.6985 14.9517 18.9243 14.9946 19.1921C15.0388 19.4675 15.0242 19.7951 14.9517 20.1661C14.868 20.5928 14.7328 20.9645 14.5502 21.2686C14.389 21.5411 14.1723 21.777 13.914 21.9614C13.6714 22.1325 13.3832 22.2624 13.0573 22.3455C12.7415 22.4273 12.3814 22.4685 11.9865 22.4685H11.7321C11.5501 22.4685 11.3734 22.5336 11.2347 22.6503C11.0961 22.7683 11.0042 22.9313 10.9753 23.1103L10.9562 23.2139L10.6341 25.242L10.6195 25.3164C10.6156 25.34 10.609 25.3518 10.5993 25.3597C10.5898 25.3674 10.578 25.3717 10.5658 25.3718H8.99484Z" fill="#253B80"/>
<path d="M14.4957 17.9292C14.486 17.9912 14.4748 18.0546 14.4623 18.1197C14.0311 20.3196 12.556 21.0795 10.672 21.0795H9.71279C9.4824 21.0795 9.28825 21.2458 9.25235 21.4716L8.76123 24.5669L8.62215 25.4443C8.61661 25.4791 8.61873 25.5146 8.62835 25.5486C8.63798 25.5825 8.65489 25.6139 8.67791 25.6407C8.70093 25.6675 8.72952 25.689 8.76172 25.7038C8.79391 25.7185 8.82895 25.7262 8.8644 25.7262H10.5657C10.7672 25.7262 10.9383 25.5807 10.97 25.3833L10.9868 25.2974L11.3071 23.2773L11.3277 23.1665C11.359 22.9683 11.5305 22.8229 11.732 22.8229H11.9864C13.6348 22.8229 14.9251 22.1578 15.3023 20.2333C15.4598 19.4294 15.3783 18.7581 14.9614 18.286C14.8293 18.1399 14.6715 18.019 14.4957 17.9292Z" fill="#179BD7"/>
<path d="M14.0443 17.7506C13.9066 17.711 13.7666 17.6801 13.625 17.6581C13.3452 17.6154 13.0624 17.5949 12.7794 17.5968H10.2168C10.1192 17.5967 10.0249 17.6313 9.95081 17.6943C9.87672 17.7574 9.82776 17.8446 9.81278 17.9404L9.26764 21.3717L9.25195 21.4718C9.26894 21.3625 9.3247 21.2629 9.40915 21.191C9.49361 21.1191 9.60118 21.0796 9.7124 21.0797H10.6716C12.5556 21.0797 14.0307 20.3194 14.4619 18.1198C14.4748 18.0547 14.4856 17.9913 14.4953 17.9293C14.3815 17.87 14.263 17.8203 14.1408 17.7807C14.1088 17.7702 14.0766 17.7601 14.0443 17.7506Z" fill="#222D65"/>
<path d="M9.81195 17.9405C9.8268 17.8447 9.87573 17.7573 9.94986 17.6944C10.024 17.6314 10.1184 17.5969 10.2159 17.5972H12.7785C13.0821 17.5972 13.3655 17.6169 13.6241 17.6585C13.7991 17.6858 13.9717 17.7267 14.1403 17.7808C14.2676 17.8227 14.3857 17.8722 14.4948 17.9294C14.6231 17.1164 14.4938 16.5629 14.0515 16.0617C13.5638 15.5099 12.6837 15.2737 11.5575 15.2737H8.28805C8.058 15.2737 7.86176 15.4399 7.82621 15.6661L6.46439 24.2442C6.45805 24.2841 6.46046 24.3248 6.47147 24.3636C6.48247 24.4024 6.5018 24.4384 6.52814 24.4691C6.55447 24.4997 6.58717 24.5244 6.62401 24.5413C6.66084 24.5582 6.70092 24.567 6.7415 24.5671H8.76L9.2668 21.3717L9.81195 17.9405Z" fill="#253B80"/>
</svg>
