<svg width="56" height="42" viewBox="0 0 56 42" fill="none" xmlns="http://www.w3.org/2000/svg">
<rect width="56" height="42" rx="8" fill="#F6F6F6"/>
<path fill-rule="evenodd" clip-rule="evenodd" d="M49.541 21.2992C49.541 18.2359 48.0572 15.8188 45.2213 15.8188C42.3735 15.8188 40.6504 18.2359 40.6504 21.2753C40.6504 24.877 42.6846 26.6958 45.6042 26.6958C47.0282 26.6958 48.1051 26.3727 48.9188 25.918V23.5248C48.1051 23.9317 47.1718 24.183 45.9871 24.183C44.8265 24.183 43.7974 23.7761 43.6658 22.3641H49.5171C49.5171 22.2086 49.541 21.5864 49.541 21.2992ZM43.6299 20.1624C43.6299 18.8103 44.4555 18.2479 45.2094 18.2479C45.9393 18.2479 46.7171 18.8103 46.7171 20.1624H43.6299Z" fill="#32325D"/>
<path fill-rule="evenodd" clip-rule="evenodd" d="M36.0318 15.8188C34.8591 15.8188 34.1053 16.3693 33.6865 16.7522L33.5309 16.0103H30.8984V29.9624L33.8899 29.3282L33.9019 25.9419C34.3326 26.253 34.9668 26.6958 36.0198 26.6958C38.1617 26.6958 40.1121 24.9727 40.1121 21.1795C40.1001 17.7094 38.1258 15.8188 36.0318 15.8188ZM35.3138 24.0633C34.6078 24.0633 34.189 23.812 33.9019 23.5009L33.8899 19.0616C34.201 18.7146 34.6318 18.4753 35.3138 18.4753C36.4027 18.4753 37.1566 19.6958 37.1566 21.2633C37.1566 22.8667 36.4147 24.0633 35.3138 24.0633Z" fill="#32325D"/>
<path fill-rule="evenodd" clip-rule="evenodd" d="M29.7847 12.0376L26.7812 12.6718V15.1128L29.7847 14.4667V12.0376Z" fill="#32325D"/>
<path fill-rule="evenodd" clip-rule="evenodd" d="M26.7812 16.0222H29.7847V26.4923H26.7812V16.0222Z" fill="#32325D"/>
<path fill-rule="evenodd" clip-rule="evenodd" d="M23.5632 16.9077L23.3717 16.0222H20.7871V26.4923H23.7786V19.3966C24.4845 18.4752 25.6811 18.6428 26.0521 18.7744V16.0222C25.6692 15.8787 24.2692 15.6154 23.5632 16.9077Z" fill="#32325D"/>
<path fill-rule="evenodd" clip-rule="evenodd" d="M17.5781 13.4257L14.6585 14.0479L14.6465 23.6325C14.6465 25.4034 15.9747 26.7077 17.7456 26.7077C18.7268 26.7077 19.4448 26.5282 19.8396 26.3128V23.8838C19.4567 24.0393 17.5661 24.5898 17.5661 22.8188V18.571H19.8396V16.0222H17.5661L17.5781 13.4257Z" fill="#32325D"/>
<path fill-rule="evenodd" clip-rule="evenodd" d="M9.49024 19.0616C9.49024 18.5949 9.87315 18.4154 10.5073 18.4154C11.4167 18.4154 12.5655 18.6906 13.4749 19.1812V16.3693C12.4817 15.9744 11.5005 15.8188 10.5073 15.8188C8.07828 15.8188 6.46289 17.0872 6.46289 19.2052C6.46289 22.5077 11.0099 21.9812 11.0099 23.4052C11.0099 23.9556 10.5313 24.1351 9.86118 24.1351C8.86802 24.1351 7.59964 23.7283 6.59451 23.1778V26.0257C7.70733 26.5043 8.83212 26.7077 9.86118 26.7077C12.3501 26.7077 14.0612 25.4753 14.0612 23.3334C14.0492 19.7676 9.49024 20.4018 9.49024 19.0616Z" fill="#32325D"/>
</svg>
